<mxfile host="app.diagrams.net" agent="Mozilla/5.0 (Windows NT 10.0; Win64; x64; rv:141.0) Gecko/20100101 Firefox/141.0" version="28.0.6">
  <diagram name="Page-1" id="QFhNQCTmrUCvf9Rlz2jg">
    <mxGraphModel dx="1737" dy="892" grid="1" gridSize="10" guides="1" tooltips="1" connect="1" arrows="1" fold="1" page="1" pageScale="1" pageWidth="850" pageHeight="1100" math="0" shadow="0">
      <root>
        <mxCell id="0" />
        <mxCell id="1" parent="0" />
        <mxCell id="E_VL5WbvbWzcL5I80N5O-26" value="" style="rounded=0;whiteSpace=wrap;html=1;" vertex="1" parent="1">
          <mxGeometry x="10" y="80" width="520" height="290" as="geometry" />
        </mxCell>
        <mxCell id="E_VL5WbvbWzcL5I80N5O-9" style="edgeStyle=orthogonalEdgeStyle;rounded=0;orthogonalLoop=1;jettySize=auto;html=1;entryX=0;entryY=0.5;entryDx=0;entryDy=0;" edge="1" parent="1" source="E_VL5WbvbWzcL5I80N5O-10" target="E_VL5WbvbWzcL5I80N5O-12">
          <mxGeometry relative="1" as="geometry" />
        </mxCell>
        <mxCell id="E_VL5WbvbWzcL5I80N5O-10" value="SLAM" style="rounded=1;whiteSpace=wrap;html=1;" vertex="1" parent="1">
          <mxGeometry x="80" y="130" width="110" height="60" as="geometry" />
        </mxCell>
        <mxCell id="E_VL5WbvbWzcL5I80N5O-22" style="edgeStyle=orthogonalEdgeStyle;rounded=0;orthogonalLoop=1;jettySize=auto;html=1;" edge="1" parent="1" source="E_VL5WbvbWzcL5I80N5O-12" target="E_VL5WbvbWzcL5I80N5O-14">
          <mxGeometry relative="1" as="geometry" />
        </mxCell>
        <mxCell id="E_VL5WbvbWzcL5I80N5O-12" value="Map midline generation" style="rounded=1;whiteSpace=wrap;html=1;" vertex="1" parent="1">
          <mxGeometry x="350" y="130" width="120" height="60" as="geometry" />
        </mxCell>
        <mxCell id="E_VL5WbvbWzcL5I80N5O-23" style="edgeStyle=orthogonalEdgeStyle;rounded=0;orthogonalLoop=1;jettySize=auto;html=1;" edge="1" parent="1" source="E_VL5WbvbWzcL5I80N5O-14" target="E_VL5WbvbWzcL5I80N5O-16">
          <mxGeometry relative="1" as="geometry" />
        </mxCell>
        <mxCell id="E_VL5WbvbWzcL5I80N5O-14" value="Spline smoothing" style="rounded=1;whiteSpace=wrap;html=1;" vertex="1" parent="1">
          <mxGeometry x="345" y="250" width="130" height="60" as="geometry" />
        </mxCell>
        <mxCell id="E_VL5WbvbWzcL5I80N5O-16" value="Optimal racing line generation" style="rounded=1;whiteSpace=wrap;html=1;" vertex="1" parent="1">
          <mxGeometry x="80" y="250" width="110" height="60" as="geometry" />
        </mxCell>
        <mxCell id="E_VL5WbvbWzcL5I80N5O-18" value="map.pgm" style="text;html=1;align=center;verticalAlign=middle;resizable=0;points=[];autosize=1;strokeColor=none;fillColor=none;" vertex="1" parent="1">
          <mxGeometry x="240" y="130" width="70" height="30" as="geometry" />
        </mxCell>
        <mxCell id="E_VL5WbvbWzcL5I80N5O-19" value="midline.csv" style="text;html=1;align=center;verticalAlign=middle;resizable=0;points=[];autosize=1;strokeColor=none;fillColor=none;" vertex="1" parent="1">
          <mxGeometry x="410" y="206" width="80" height="30" as="geometry" />
        </mxCell>
        <mxCell id="E_VL5WbvbWzcL5I80N5O-20" value="&lt;div&gt;smoothed_midline.csv&lt;/div&gt;" style="text;html=1;align=center;verticalAlign=middle;resizable=0;points=[];autosize=1;strokeColor=none;fillColor=none;" vertex="1" parent="1">
          <mxGeometry x="200" y="250" width="140" height="30" as="geometry" />
        </mxCell>
        <mxCell id="E_VL5WbvbWzcL5I80N5O-29" style="edgeStyle=orthogonalEdgeStyle;rounded=0;orthogonalLoop=1;jettySize=auto;html=1;" edge="1" parent="1" source="E_VL5WbvbWzcL5I80N5O-25" target="E_VL5WbvbWzcL5I80N5O-26">
          <mxGeometry relative="1" as="geometry" />
        </mxCell>
        <mxCell id="E_VL5WbvbWzcL5I80N5O-25" value="&lt;div&gt;LIDAR&lt;/div&gt;&lt;div&gt;VESC&lt;/div&gt;" style="rounded=1;whiteSpace=wrap;html=1;" vertex="1" parent="1">
          <mxGeometry x="215" y="440" width="110" height="100" as="geometry" />
        </mxCell>
        <mxCell id="E_VL5WbvbWzcL5I80N5O-27" value="Map and Raceline generation" style="text;html=1;align=center;verticalAlign=middle;whiteSpace=wrap;rounded=0;" vertex="1" parent="1">
          <mxGeometry x="20" y="90" width="160" height="30" as="geometry" />
        </mxCell>
        <mxCell id="E_VL5WbvbWzcL5I80N5O-30" value="LIDAR Points&lt;br&gt;Odometry" style="text;html=1;align=center;verticalAlign=middle;resizable=0;points=[];autosize=1;strokeColor=none;fillColor=none;" vertex="1" parent="1">
          <mxGeometry x="170" y="383" width="100" height="40" as="geometry" />
        </mxCell>
      </root>
    </mxGraphModel>
  </diagram>
</mxfile>
